# xmcd
#
# Track frame offsets:
#	150
#	13320
#	35155
#	51675
#	66605
#	81565
#	93682
#	111350
#	129940
#	146347
#
# Disc length: 2157 seconds
#
# Revision: 0
# Processed by: cddbd v1.4PL0 Copyright (c) Steve Scherf et al.
# Submitted via: EasyCDDAExtractor 4.5.0.2
#
DISCID=a0086b0a
DTITLE=Various Artist - Country Music Classics Vol. XXI (1980-1985)
DYEAR=1900
DGENRE=country
TTITLE0=I Will Always Love You (Dolly Parton)
TTITLE1=City of New Orleans (Willie Nelson)
TTITLE2=I Was Country When Country Wasn't Cool (Barbara Mandrell)
TTITLE3=He Stopped Loving Her Today (George Jones)
TTITLE4=Nobody (Sylvia)
TTITLE5=Elvira (The Oak Ridge Boys)
TTITLE6=I'm Gonna Hire A Wino To Decorate Our Home (David Frizzell)
TTITLE7=The Sweetest Thing (I've Ever Known) (Juice Newton)
TTITLE8=I Loved 'Em Every One (T. G. Sheppard)
TTITLE9=Killin' Time (Fred Knoblock and Susan Anton)
EXTD=
EXTT0=
EXTT1=
EXTT2=
EXTT3=
EXTT4=
EXTT5=
EXTT6=
EXTT7=
EXTT8=
EXTT9=
PLAYORDER=
